<svg width="40" height="40" viewBox="0 0 40 40" fill="none" xmlns="http://www.w3.org/2000/svg">
<mask id="mask0_44_205" style="mask-type:alpha" maskUnits="userSpaceOnUse" x="0" y="0" width="40" height="40">
<rect width="40" height="40" fill="#D9D9D9"/>
</mask>
<g mask="url(#mask0_44_205)">
<path d="M31.6668 13.8888C32.2966 13.8888 32.8243 13.6758 33.2502 13.25C33.676 12.8242 33.8889 12.2964 33.8889 11.6667C33.8889 11.0369 33.676 10.5092 33.2502 10.0833C32.8243 9.6575 32.2966 9.44459 31.6668 9.44459C31.0371 9.44459 30.5093 9.6575 30.0835 10.0833C29.6577 10.5092 29.4447 11.0369 29.4447 11.6667C29.4447 12.2964 29.6577 12.8242 30.0835 13.25C30.5093 13.6758 31.0371 13.8888 31.6668 13.8888ZM31.6668 16.6667C30.2502 16.6667 29.0627 16.1875 28.1043 15.2292C27.146 14.2708 26.6668 13.0833 26.6668 11.6667C26.6668 10.2778 27.146 9.09723 28.1043 8.125C29.0627 7.15278 30.2502 6.66667 31.6668 6.66667C33.0557 6.66667 34.2363 7.15278 35.2085 8.125C36.1807 9.09723 36.6668 10.2778 36.6668 11.6667C36.6668 13.0833 36.1807 14.2708 35.2085 15.2292C34.2363 16.1875 33.0557 16.6667 31.6668 16.6667ZM20.0043 12.2221C20.8441 12.2221 21.5625 11.9304 22.1597 11.3471C22.757 10.7638 23.0556 10.0356 23.0556 9.1625C23.0556 8.32278 22.7585 7.60431 22.1643 7.00709C21.5704 6.40986 20.8491 6.11125 20.0002 6.11125C19.1299 6.11125 18.4031 6.40834 17.8197 7.0025C17.2364 7.59639 16.9447 8.31778 16.9447 9.16667C16.9447 10.0369 17.2364 10.7638 17.8197 11.3471C18.4031 11.9304 19.1313 12.2221 20.0043 12.2221ZM20.0002 15C18.3613 15 16.9793 14.4375 15.8543 13.3125C14.7293 12.1875 14.1668 10.8056 14.1668 9.16667C14.1668 7.55556 14.7293 6.18056 15.8543 5.04167C16.9793 3.90278 18.3613 3.33334 20.0002 3.33334C21.6113 3.33334 22.9863 3.90278 24.1252 5.04167C25.2641 6.18056 25.8335 7.55556 25.8335 9.16667C25.8335 10.8056 25.2641 12.1875 24.1252 13.3125C22.9863 14.4375 21.6113 15 20.0002 15ZM12.7781 22.2917C12.7781 23.2108 13.2642 24.2832 14.2364 25.5088C15.2086 26.7343 17.1299 28.6481 20.0002 31.25C22.8288 28.6789 24.7396 26.7885 25.7327 25.5788C26.7257 24.3688 27.2222 23.2731 27.2222 22.2917C27.2222 21.4861 26.9606 20.8101 26.4372 20.2638C25.9136 19.7176 25.2679 19.4446 24.5002 19.4446C24.0449 19.4446 23.6139 19.5557 23.2072 19.7779C22.8006 20.0001 22.4306 20.2732 22.0972 20.5971L20.1806 22.5554H19.8056L17.8614 20.5971C17.5281 20.2732 17.16 20.0001 16.7572 19.7779C16.3545 19.5557 15.9324 19.4446 15.491 19.4446C14.7102 19.4446 14.0628 19.7207 13.5489 20.2729C13.035 20.8249 12.7781 21.4978 12.7781 22.2917ZM10.0002 22.2917C10.0002 20.8195 10.5372 19.5139 11.6114 18.375C12.6853 17.2361 13.9816 16.6667 15.5002 16.6667C16.3427 16.6667 17.1632 16.8611 17.9618 17.25C18.7604 17.6389 19.4399 18.1667 20.0002 18.8333C20.5607 18.1667 21.2332 17.6389 22.0177 17.25C22.8024 16.8611 23.6299 16.6667 24.5002 16.6667C26.0002 16.6667 27.2918 17.2385 28.3752 18.3821C29.4585 19.5254 30.0002 20.8286 30.0002 22.2917C30.0002 23.7639 29.4654 25.2153 28.396 26.6458C27.3266 28.0764 25.1391 30.3056 21.8335 33.3333L20.0002 35L18.1668 33.3333C14.8057 30.2778 12.6043 28.0417 11.5627 26.625C10.521 25.2083 10.0002 23.7639 10.0002 22.2917ZM8.3335 13.8888C8.96322 13.8888 9.491 13.6758 9.91683 13.25C10.3427 12.8242 10.5556 12.2964 10.5556 11.6667C10.5556 11.0369 10.3427 10.5092 9.91683 10.0833C9.491 9.6575 8.96322 9.44459 8.3335 9.44459C7.70377 9.44459 7.176 9.6575 6.75016 10.0833C6.32433 10.5092 6.11141 11.0369 6.11141 11.6667C6.11141 12.2964 6.32433 12.8242 6.75016 13.25C7.176 13.6758 7.70377 13.8888 8.3335 13.8888ZM20.1252 36.6667V33.8888H33.8889V21.1113H28.3056V18.3333H33.8889C34.6528 18.3333 35.3068 18.6053 35.851 19.1492C36.3949 19.6933 36.6668 20.3474 36.6668 21.1113V36.6667H20.1252ZM6.11141 33.8888H20.1252V36.6667H3.3335V21.1113C3.3335 20.3474 3.59975 19.6933 4.13225 19.1492C4.66447 18.6053 5.32419 18.3333 6.11141 18.3333H11.6668V21.1113H6.11141V33.8888ZM8.3335 16.6667C6.91683 16.6667 5.72933 16.1875 4.771 15.2292C3.81266 14.2708 3.3335 13.0833 3.3335 11.6667C3.3335 10.2778 3.81266 9.09723 4.771 8.125C5.72933 7.15278 6.91683 6.66667 8.3335 6.66667C9.72239 6.66667 10.9029 7.15278 11.8752 8.125C12.8474 9.09723 13.3335 10.2778 13.3335 11.6667C13.3335 13.0833 12.8474 14.2708 11.8752 15.2292C10.9029 16.1875 9.72239 16.6667 8.3335 16.6667Z" fill="#1C1B1F"/>
</g>
</svg>
