<svg width="40" height="40" viewBox="0 0 40 40" fill="none" xmlns="http://www.w3.org/2000/svg">
<mask id="mask0_44_210" style="mask-type:alpha" maskUnits="userSpaceOnUse" x="0" y="0" width="40" height="40">
<rect width="40" height="40" fill="#D9D9D9"/>
</mask>
<g mask="url(#mask0_44_210)">
<path d="M12.9998 33.8888H26.9998V28.6946C26.9998 26.7501 26.3193 25.1019 24.9582 23.75C23.5971 22.3981 21.9443 21.7221 19.9998 21.7221C18.0554 21.7221 16.4026 22.3981 15.0415 23.75C13.6804 25.1019 12.9998 26.7501 12.9998 28.6946V33.8888ZM19.9998 18.2779C21.9443 18.2779 23.5971 17.5974 24.9582 16.2363C26.3193 14.8751 26.9998 13.2224 26.9998 11.2779V6.11125H12.9998V11.2779C12.9998 13.2224 13.6804 14.8751 15.0415 16.2363C16.4026 17.5974 18.0554 18.2779 19.9998 18.2779ZM6.6665 36.6667V33.8888H10.2219V28.6946C10.2219 26.8149 10.7243 25.0903 11.729 23.5208C12.7337 21.9514 14.0833 20.7778 15.7778 20C14.0833 19.2036 12.7337 18.0207 11.729 16.4513C10.7243 14.8818 10.2219 13.1574 10.2219 11.2779V6.11125H6.6665V3.33334H33.3332V6.11125H29.7778V11.2779C29.7778 13.1574 29.2754 14.8818 28.2707 16.4513C27.2659 18.0207 25.9164 19.2036 24.2219 20C25.9164 20.7778 27.2659 21.9514 28.2707 23.5208C29.2754 25.0903 29.7778 26.8149 29.7778 28.6946V33.8888H33.3332V36.6667H6.6665Z" fill="#1C1B1F"/>
</g>
</svg>
